<svg xmlns="http://www.w3.org/2000/svg" viewBox="0 0 1242 554.72"><defs><style>.cls-1{fill:#00bcd4;}.cls-2{fill:#37474f;}</style></defs><title>Assis-logo</title><g id="Capa_2" data-name="Capa 2"><g id="Assis-logo"><path class="cls-1" d="M762.83,262.59l-5.76,14q-13.35,30-37.91,30a32.89,32.89,0,0,1-22.29-8.64Q687,289.28,687,278.06q0-10.62,8.79-28.21L736.14,168q14.85-29.41,37-29.42a29.15,29.15,0,0,1,20.32,7.73Q802,154,802,164.63q0,2.73-1.82,11.83a66.87,66.87,0,0,0-1.21,11.83q0,19.11,14.25,39.12l17.29,24q26.38,36.7,26.38,71,0,38.22-28.51,63.84t-71,25.63H694q-38.51,0-38.51-26.69,0-18.5,13.65-29t37.6-10.47H741.9q42.15,0,42.16-30.63,0-11.21-7.89-26.38Z"/><path class="cls-1" d="M950.63,345.68H984.9q38.22,0,38.21,27,0,18.49-13.49,28.81T971.86,411.8H923.64q-26.68,0-42-10.92t-15.32-29.72q0-10,6.37-25.48l50-123.12,3.34-8.49Q940,179.8,971,179.8a31.43,31.43,0,0,1,22,8.49q9.24,8.49,9.25,20.32,0,9.7-8.19,29.72Z"/><path class="cls-1" d="M1148,262.59l-5.76,14q-13.35,30-37.91,30a32.91,32.91,0,0,1-22.29-8.64q-9.86-8.64-9.85-19.86,0-10.62,8.79-28.21L1121.3,168q14.85-29.41,37-29.42a29.14,29.14,0,0,1,20.31,7.73q8.49,7.74,8.5,18.35,0,2.73-1.82,11.83a67,67,0,0,0-1.22,11.83q0,19.11,14.26,39.12l17.28,24q26.39,36.7,26.39,71,0,38.22-28.51,63.84t-71,25.63h-63.38q-38.52,0-38.52-26.69,0-18.5,13.65-29t37.61-10.47h35.18q42.15,0,42.15-30.63,0-11.21-7.88-26.38Z"/><path class="cls-2" d="M952.26,61.9a58.35,58.35,0,0,1,114.47-16,9.19,9.19,0,0,0-2.42,5.11l-.64,5.1-1.08,5.77h-6A46,46,0,1,0,988.17,102l-9,9A58.32,58.32,0,0,1,952.26,61.9Zm58.37-36.66a6.18,6.18,0,0,0-6.18,6.18V61.9a6.18,6.18,0,0,0,6.18,6.19h35a6.19,6.19,0,0,0,0-12.38h-28.82V31.42A6.19,6.19,0,0,0,1010.63,25.24Zm64.43,27.27a3.09,3.09,0,0,0-2.93-3,3.13,3.13,0,0,0-3.23,2.7l-.66,5.28-1.16,6.16a46.21,46.21,0,0,1-1.88,6.75l-1.39,4-2,4.33a39.77,39.77,0,0,1-2.89,5.45c-.58,1-1.16,1.92-1.7,2.91-.57.77-1.13,1.55-1.68,2.33a50.18,50.18,0,0,1-4.67,5.93,55.67,55.67,0,0,1-5.55,5.67l-1.78,1.67-2,1.51a55.42,55.42,0,0,1-6.6,4.65,45.59,45.59,0,0,1-6,3.36c-.86.42-1.71.84-2.54,1.28-1,.37-2.07.78-3.08,1.18a35.25,35.25,0,0,1-5.55,1.88l-4.09,1.13-4,.69a35.86,35.86,0,0,1-5.59.65l-3.27.25-.47,0V104.86a3.09,3.09,0,0,0-5.28-2.19l-26.62,26.62a3.1,3.1,0,0,0,0,4.37l26.62,26.62a3.09,3.09,0,0,0,2.19.9,3.22,3.22,0,0,0,1.18-.23,3.09,3.09,0,0,0,1.91-2.86V143l5.7-1a63.92,63.92,0,0,0,9.06-2.39l3.66-1.23,6.07-2.57a53.9,53.9,0,0,0,7.32-3.79c1-.59,2-1.18,3-1.75a3,3,0,0,0,.33-.21c.8-.58,1.62-1.15,2.45-1.73a62.18,62.18,0,0,0,7.29-5.61,71.63,71.63,0,0,0,7.41-7.13l1.68-1.75.21-.24,1.51-1.92a71.52,71.52,0,0,0,5.81-8,61.77,61.77,0,0,0,4.48-7.89c.45-.9.91-1.79,1.37-2.66a2.43,2.43,0,0,0,.16-.37c.41-1.1.85-2.18,1.29-3.24a49.6,49.6,0,0,0,2.51-7.16l1.43-5.07.81-4.47a53.28,53.28,0,0,0,1-8l.3-4Z"/><path class="cls-2" d="M492.37,258.14H408.55L308.37,431.55q-70.8,123.16-168,123.17-59.62,0-100-42.82T0,405.82q0-51.43,31.17-99.11t85-79.13q40.24-23,89.27-32.38t130.44-9.39h22.39l23.91-43.88q49.93-91.7,122-122.26Q550.48,0,625.23,0q19.07,0,30,8.47t10.89,23.61q0,7-3.63,16.34l-2.72,7L607.67,185.81h30.87q33.88,0,33.9,29.36,0,17.87-13.92,30.41t-33.9,12.56h-46.3l-33.59,82.62h57.19q33.9,0,33.9,29.05,0,18.17-13.92,30.72T588,413.09H515.07q-26,0-42.52-13.47t-16.49-34.95q0-16.65,12.41-47.21Zm-175.52,0H291.13q-86.56,0-137.4,32.08-32.39,20.58-51.6,51.45T82.92,404q0,28.74,18.46,49.18t44.79,20.42q45.69,0,80.8-60.52ZM522,185.81,565.61,78.38q-32.08,2.12-54,20.43t-50.08,66.42L449.1,185.81Z"/></g></g></svg>